<mxfile host="app.diagrams.net" modified="2023-02-01T18:53:58.426Z" agent="5.0 (X11; Ubuntu)" etag="cUJG7BY8ra3E37g2SIjI" version="20.8.15" type="github">
  <diagram name="Page-1" id="q7aavFbJKi74bAzXyy39">
    <mxGraphModel dx="1360" dy="795" grid="1" gridSize="10" guides="1" tooltips="1" connect="1" arrows="1" fold="1" page="1" pageScale="1" pageWidth="827" pageHeight="1169" math="0" shadow="0">
      <root>
        <mxCell id="0" />
        <mxCell id="1" parent="0" />
        <mxCell id="s9aVg6gawLhhlaJVRMTj-1" value="" style="rounded=1;whiteSpace=wrap;html=1;" vertex="1" parent="1">
          <mxGeometry x="350" y="380" width="120" height="60" as="geometry" />
        </mxCell>
      </root>
    </mxGraphModel>
  </diagram>
</mxfile>
